<?xml version="1.0" encoding="UTF-8" standalone="no"?>
<!-- Created with Inkscape (http://www.inkscape.org/) -->

<svg
   width="210mm"
   height="297mm"
   viewBox="0 0 210 297"
   version="1.1"
   id="svg5"
   inkscape:version="1.1.1 (3bf5ae0d25, 2021-09-20)"
   sodipodi:docname="dessin.svg"
   xmlns:inkscape="http://www.inkscape.org/namespaces/inkscape"
   xmlns:sodipodi="http://sodipodi.sourceforge.net/DTD/sodipodi-0.dtd"
   xmlns="http://www.w3.org/2000/svg"
   xmlns:svg="http://www.w3.org/2000/svg">
  <sodipodi:namedview
     id="namedview7"
     pagecolor="#ffffff"
     bordercolor="#666666"
     borderopacity="1.0"
     inkscape:pageshadow="2"
     inkscape:pageopacity="0.0"
     inkscape:pagecheckerboard="0"
     inkscape:document-units="mm"
     showgrid="false"
     inkscape:zoom="0.37059484"
     inkscape:cx="311.66111"
     inkscape:cy="570.70412"
     inkscape:window-width="1920"
     inkscape:window-height="1017"
     inkscape:window-x="-8"
     inkscape:window-y="-8"
     inkscape:window-maximized="1"
     inkscape:current-layer="layer1" />
  <defs
     id="defs2" />
  <g
     inkscape:label="Calque 1"
     inkscape:groupmode="layer"
     id="layer1">
    <g
       id="g79"
       transform="matrix(0.26458333,0,0,0.26458333,-234.87934,-221.31446)">
      <rect
         x="0"
         y="690.38"
         class="st0"
         width="2692.9099"
         height="1312.15"
         id="rect40" />
      <g
         id="g60">
	<path
   d="m 821.27,1505.53 -0.89,-534.1 v -35.61 h -58.75 l -8.9,21.36 -207.41,461.1 -208.3,-461.1 -8.9,-21.36 h -58.75 v 35.61 534.1 35.61 0 54.16 c 4.49,-8.72 10.2,-16.85 17.15,-24.4 15.21,-16.78 32.91,-26.7 53.12,-29.76 h 0.95 V 1505.53 1137 l 172.69,382.77 8.9,21.36 H 367.12 c 9.96,1.51 19.87,4.7 29.73,9.55 18.39,9.2 31.43,21.28 39.13,36.24 l -11.55,5.77 c -3.42,-6.84 -8.66,-13.25 -15.72,-19.24 -16.25,-13.9 -34.64,-20.74 -55.16,-20.53 -22.02,0.21 -41.16,8.98 -57.41,26.3 -17.53,19.03 -26.3,42.33 -26.3,69.92 0,25.87 7.91,48.22 23.73,67.03 16.46,19.46 36.45,29.18 59.97,29.18 22.23,-0.21 41.69,-9.3 58.37,-27.26 16.46,-17.96 24.7,-38.81 24.7,-62.54 h -82.74 v -12.83 h 95.57 v 6.42 c -0.22,30.79 -10.05,57.09 -29.51,78.9 -15.05,16.26 -32.41,25.94 -52.08,29.05 h 247.91 l 3.66,-7.88 89.8,-205.26 1.17,-2.82 H 568.47 l 8.9,-21.36 171.8,-382.77 0.89,368.53 v 35.61 h -30.47 l 1.17,2.82 89.8,205.26 3.66,7.88 h 179.15 v -5.31 -205.26 -5.38 h -172.1 z"
   id="path42" />

	<polygon
   points="1652.66,935.82 1642.87,957.19 1411.43,1491.28 1390.07,1541.13 1316.65,1541.13 1316.65,1546.52 1316.65,1745.36 1425.69,1745.36 1432.11,1745.36 1432.11,1757.09 1614.27,1757.09 1614.27,1751.78 1614.27,1655.56 1614.27,1642.73 1614.27,1546.52 1614.27,1541.13 1467.51,1541.13 1477.3,1519.77 1675.81,1061.34 1874.31,1519.77 1884.11,1541.13 1768.21,1541.13 1768.21,1552.93 1761.8,1552.93 1627.1,1552.93 1627.1,1642.73 1723.95,1642.73 1730.37,1642.73 1730.37,1655.56 1723.95,1655.56 1627.1,1655.56 1627.1,1745.36 1761.8,1745.36 1768.21,1745.36 1768.21,1757.09 1963.21,1757.09 1963.21,1751.78 1963.21,1655.56 1963.21,1649.15 1963.53,1546.84 1963.53,1541.13 1961.55,1541.13 1940.19,1491.28 1708.74,957.19 1698.95,935.82 "
   id="polygon44" />

	<polygon
   points="1289.49,952.74 1187.8,1115.17 1229.99,1181.37 1350.02,990.12 1383.84,935.82 1300.17,935.82 "
   id="polygon46" />

	<polygon
   points="989.07,935.82 916.51,935.82 951.23,991.01 1116.8,1250.05 1116.8,1505.53 1116.8,1541.13 1006.2,1541.13 1006.2,1546.52 1006.2,1745.36 1115.24,1745.36 1121.66,1745.36 1121.66,1757.09 1303.82,1757.09 1303.82,1751.78 1303.82,1546.52 1303.82,1541.13 1188.01,1541.13 1188.01,1505.53 1188.01,1248.27 1188.1,1248.13 "
   id="polygon48" />

	<polygon
   points="800.16,1757.09 799.02,1754.34 714.99,1562.55 630.96,1754.34 629.82,1757.09 "
   id="polygon50" />

	<polygon
   points="2423.54,1541.13 2306.09,1541.13 2307.33,1542.99 2369.87,1637.6 2423.54,1554.71 "
   id="polygon52" />

	<path
   d="m 2290.68,1541.13 h -56.2 c 56.08,-4.67 103.08,-25.7 140.99,-63.09 31.45,-32.05 47.47,-67.05 48.07,-105.04 0,-53.41 -35.91,-98.21 -107.71,-134.41 -14.24,-6.52 -56.68,-23.73 -127.29,-51.63 -56.97,-21.95 -90.5,-42.73 -100.59,-62.31 -2.98,-6.52 -4.45,-12.75 -4.45,-18.69 0,-34.41 18.1,-61.12 54.3,-80.11 22.55,-11.86 46.58,-17.8 72.1,-17.8 43.91,0 78.63,13.95 104.15,41.84 14.83,16.62 22.25,35.31 22.25,56.08 h 71.21 c 0,-49.25 -21.36,-90.8 -64.09,-124.62 -37.98,-29.67 -82.49,-44.51 -133.52,-44.51 -64.09,0 -115.72,21.36 -154.89,64.09 -28.48,31.46 -42.73,66.47 -42.73,105.04 0,52.83 35.9,97.03 107.71,132.63 13.64,6.54 55.48,23.45 125.51,50.74 57.55,22.56 91.38,43.92 101.48,64.09 3.56,6.54 5.34,13.06 5.34,19.58 0,32.64 -19.29,58.75 -57.86,78.33 -26.12,13.06 -54.3,19.58 -84.57,19.58 -48.07,0 -86.65,-13.64 -115.72,-40.95 -17.22,-17.21 -26.12,-36.19 -26.7,-56.97 h -71.21 c 0,46.29 21.06,86.35 63.2,120.17 36.14,28 78.18,43.98 126.13,47.96 h -114.01 c 10.81,1.82 20.65,6.07 29.53,12.76 14.96,11.76 22.45,26.51 22.45,44.26 0,9.2 -2.36,17.96 -7.06,26.3 -8.98,15.18 -22.67,24.91 -41.05,29.18 2.78,2.36 5.45,4.92 8.02,7.7 13.25,14.97 26.51,44.47 39.77,88.52 l 2.23,7.24 h 237.99 v -5.31 -100.71 l -67.03,-101.03 z"
   id="path54" />

	<path
   d="m 1977,1643.05 h 0.32 0.32 0.32 0.32 0.32 0.32 0.32 0.32 0.32 0.32 0.32 0.32 0.32 0.32 0.32 0.32 0.32 0.32 0.32 0.32 0.32 0.32 0.32 0.32 0.32 0.32 0.32 0.32 0.32 0.32 0.32 0.32 0.32 0.32 0.32 0.32 0.32 0.32 0.32 0.32 0.32 0.32 0.32 0.32 0.32 0.32 0.32 0.32 0.32 0.32 0.32 0.32 0.32 0.32 0.32 0.32 0.32 0.32 0.32 0.32 0.32 0.32 0.32 0.32 0.32 0.32 0.32 0.32 0.32 0.32 0.32 0.32 0.32 0.32 0.32 0.32 0.32 0.32 0.32 0.32 0.32 0.32 0.32 0.32 0.32 0.32 0.32 0.32 0.32 0.32 0.32 0.32 0.32 0.32 0.32 0.32 0.32 0.32 0.32 0.32 0.32 0.32 0.32 0.32 0.32 0.32 0.32 0.32 0.32 0.32 0.32 0.32 0.32 0.32 0.32 0.32 0.32 l 0.32,-0.32 h 0.32 0.32 0.32 0.32 0.32 0.32 0.32 0.32 0.32 0.32 0.32 0.32 0.32 0.32 0.32 0.32 0.32 0.32 0.32 0.32 0.32 0.32 0.32 0.32 0.32 0.32 0.32 0.32 0.32 0.32 0.32 0.32 0.32 0.32 0.32 0.32 0.32 0.32 0.32 0.32 0.32 0.32 0.32 0.32 0.32 0.32 0.32 0.32 0.32 0.32 0.32 0.32 0.32 0.32 0.32 0.32 0.32 0.32 0.32 0.32 0.32 0.32 0.32 0.32 0.32 0.32 0.32 0.32 0.32 0.32 0.32 0.32 0.32 0.32 20.85 c 11.55,0 22.02,-3.1 31.43,-9.3 13.25,-8.98 19.88,-20.74 19.88,-35.28 0,-9.83 -3.42,-18.81 -10.26,-26.94 -10.26,-12.19 -24.05,-18.28 -41.37,-18.28 h -83.07 v 90.12 h 0.64 z"
   id="path56" />

	<path
   d="m 2085.08,1686.35 c -6.84,-12.19 -16.04,-22.45 -27.58,-30.79 h -81.46 v 96.21 5.31 h 135.99 l -0.97,-3.39 c -9.41,-30.35 -18.07,-52.8 -25.98,-67.34 z"
   id="path58" />

</g>
    </g>
  </g>
  <style
     type="text/css"
     id="style38">
	.st0{fill:#A17715;}
</style>
</svg>
