<?xml version="1.0" standalone="no"?>
<!DOCTYPE svg PUBLIC "-//W3C//DTD SVG 20010904//EN"
 "http://www.w3.org/TR/2001/REC-SVG-20010904/DTD/svg10.dtd">
<svg version="1.0" xmlns="http://www.w3.org/2000/svg"
 width="300px" height="100px" viewBox="0 0 300.000000 145.000000" style="enable-background:new 0 0 2692.91 2692.91;" xml:space="preserve"
 preserveAspectRatio="xMidYMid meet">
 <style type="text/css">
	.st0{fill:#A17715;}
</style>
<metadata>
Created by potrace 1.10, written by Peter Selinger 2001-2011
</metadata>
<g transform="translate(0.000000,145.000000) scale(0.100000,-0.100000)"
fill="#212121" stroke="#212121">
<path d="M300 825 l0 -364 25 24 c13 14 31 25 40 25 13 0 15 29 16 228 0 125
3 220 6 212 3 -8 48 -108 100 -223 51 -114 93 -210 93 -213 0 -3 -36 -5 -79
-3 -44 2 -77 1 -74 -3 2 -5 10 -8 17 -8 19 0 50 -37 37 -45 -6 -3 -11 -2 -11
4 0 14 -53 41 -81 41 -33 0 -89 -62 -89 -99 0 -96 97 -148 155 -85 14 15 25
33 25 40 0 8 0 17 0 21 0 4 -20 6 -45 4 -27 -1 -45 2 -45 8 0 7 22 11 55 11
49 0 55 -2 55 -20 0 -33 -28 -78 -58 -94 -25 -14 -17 -15 108 -16 l135 0 50
116 c28 64 51 119 53 123 1 3 -34 5 -78 3 l-80 -4 47 104 c25 57 69 156 98
221 29 65 55 120 59 124 3 3 6 -96 6 -220 0 -216 -1 -227 -19 -227 -17 0 -13
-14 34 -117 l53 -118 101 -3 101 -3 0 121 0 120 -100 0 -100 0 0 341 0 340
-30 -3 c-30 -3 -34 -10 -149 -266 -66 -145 -120 -265 -122 -267 -2 -1 -58 118
-124 266 l-120 268 -32 1 -33 0 0 -365z m79 277 c14 -31 47 -104 73 -162 27
-58 68 -148 91 -200 45 -103 54 -115 75 -97 11 9 82 149 82 162 0 1 23 52 50
111 60 129 63 135 89 197 12 27 26 47 35 47 14 0 16 -37 16 -320 0 -377 -6
-358 108 -355 37 1 72 0 77 -2 11 -3 11 -170 0 -181 -3 -3 -39 -6 -81 -6 l-75
-1 -36 80 c-21 47 -35 92 -34 110 2 17 4 125 5 240 2 198 -3 245 -23 245 -10
0 -45 -57 -56 -89 -4 -12 -29 -70 -57 -128 -28 -58 -63 -136 -78 -172 -26 -61
-27 -67 -12 -84 12 -14 28 -17 69 -14 55 3 63 -4 44 -41 -6 -9 -23 -46 -40
-82 l-30 -65 -86 3 c-76 3 -86 6 -80 20 4 9 9 34 12 54 5 33 3 38 -19 43 -14
4 -44 5 -69 3 -36 -2 -44 -7 -44 -23 0 -14 10 -22 38 -30 l38 -11 -22 -22
c-28 -31 -67 -26 -96 12 -13 17 -23 36 -23 44 0 23 31 82 40 77 5 -3 11 -1 15
5 7 12 45 14 45 2 0 -11 58 -34 70 -27 5 3 10 13 10 21 0 9 11 14 33 14 17 0
41 7 51 15 21 16 19 25 -77 235 -16 36 -36 81 -44 100 -50 113 -67 141 -82
138 -14 -3 -17 -31 -21 -223 -4 -185 -7 -220 -20 -220 -13 0 -14 43 -13 315 1
173 2 316 2 318 1 1 7 2 14 2 6 0 23 -26 36 -58z"/>
<path d="M1032 1168 c9 -13 59 -91 112 -175 l98 -152 1 -165 2 -166 -62 0 -63
0 0 -110 0 -110 65 0 c37 0 65 -4 65 -10 0 -6 40 -10 100 -10 l100 0 0 120 0
120 -65 0 -65 0 0 168 0 167 -111 173 -110 172 -41 0 c-39 0 -40 0 -26 -22z
m68 -23 c0 -7 9 -20 20 -30 11 -10 20 -22 20 -27 0 -4 15 -29 34 -55 18 -27
39 -63 47 -80 8 -18 17 -33 22 -33 4 0 15 -16 24 -35 9 -19 20 -35 25 -35 4 0
8 -75 8 -167 0 -193 4 -203 77 -203 l43 0 0 -89 0 -89 -76 -4 c-42 -2 -78 0
-81 5 -2 4 -30 7 -61 7 l-57 0 3 88 c3 88 4 89 28 84 13 -2 32 -1 41 3 10 5
21 8 25 7 22 -5 30 49 26 197 -3 136 -6 161 -23 186 -11 17 -20 33 -20 36 0 4
-12 21 -27 40 -16 18 -28 39 -28 46 0 7 -4 13 -9 13 -5 0 -13 9 -16 20 -3 11
-12 26 -18 32 -12 12 -57 85 -57 92 0 1 7 3 15 3 8 0 15 -6 15 -12z"/>
<path d="M1387 1088 l-64 -103 21 -32 c12 -18 23 -33 26 -33 4 0 160 242 168
262 2 4 -17 8 -41 8 l-45 0 -65 -102z m99 57 c-3 -8 -20 -39 -38 -67 -18 -29
-40 -66 -47 -81 -9 -16 -21 -26 -30 -25 -20 5 -15 37 10 64 10 11 19 25 19 30
0 19 62 94 77 94 9 0 13 -6 9 -15z"/>
<path d="M1695 851 l-148 -341 -38 0 -39 0 0 -110 0 -110 65 0 c37 0 65 -4 65
-10 0 -6 40 -10 100 -10 l100 0 0 120 0 120 -84 0 -85 0 31 67 c17 38 70 159
118 270 l87 201 93 -216 c51 -119 104 -239 117 -265 14 -27 23 -50 21 -52 -2
-2 -67 -7 -146 -11 l-142 -7 0 -48 0 -49 60 0 c38 0 60 -4 60 -11 0 -8 -20
-10 -60 -7 l-60 4 0 -48 0 -48 80 0 c47 0 80 -4 80 -10 0 -6 43 -10 110 -10
l110 0 0 118 -1 117 -148 340 c-134 309 -150 340 -173 343 -24 3 -32 -12 -173
-337z m260 139 c40 -91 103 -235 141 -320 l68 -155 1 -110 2 -110 -46 1 c-25
1 -100 5 -166 9 l-121 8 -2 26 c-2 25 1 27 36 25 56 -1 73 6 70 30 -3 18 -11
21 -54 24 -49 3 -51 4 -52 32 l-1 30 77 1 c42 1 98 1 125 -1 32 -1 47 2 47 11
0 7 3 9 7 6 3 -4 12 -2 19 4 14 12 2 54 -40 144 -39 81 -90 196 -135 306 -17
42 -38 85 -46 95 -15 18 -16 18 -38 -8 -12 -15 -31 -49 -41 -75 -10 -27 -30
-73 -44 -103 -13 -30 -28 -65 -33 -78 -5 -13 -32 -75 -60 -139 -47 -104 -50
-117 -38 -140 12 -23 17 -24 81 -21 l68 3 0 -94 0 -93 -145 3 -145 4 0 100 c0
55 4 95 8 90 4 -6 13 -10 20 -9 6 1 18 2 26 3 16 1 41 52 120 237 30 72 68
159 84 195 17 35 47 104 67 152 25 59 43 87 52 85 8 -2 47 -77 88 -168z"/>
<path d="M2365 1166 c-81 -35 -134 -120 -121 -191 11 -56 68 -106 167 -145
148 -59 198 -87 205 -117 10 -38 -14 -74 -66 -101 -83 -43 -198 -16 -237 55
-15 28 -23 33 -55 33 -37 0 -38 -1 -32 -27 17 -74 113 -154 183 -153 20 1 14
6 -26 23 -62 26 -109 64 -122 100 -8 20 -6 27 5 31 22 8 24 8 24 -7 0 -17 75
-88 84 -80 3 4 6 2 6 -4 0 -10 11 -12 78 -14 57 -1 147 43 167 81 19 37 19 55
-2 91 -18 30 -69 58 -203 109 -124 48 -165 99 -149 184 7 40 30 67 90 104 29
18 50 22 104 21 62 -2 70 -5 126 -45 32 -24 59 -48 59 -53 0 -5 3 -16 6 -24
11 -30 -31 -12 -58 24 -65 89 -221 86 -276 -4 -40 -63 -23 -106 57 -144 31
-15 58 -30 61 -33 3 -3 14 -7 25 -8 11 -2 22 -8 23 -13 2 -5 8 -6 13 -3 6 3
18 -1 27 -9 9 -9 22 -16 27 -16 21 -2 45 -13 45 -20 0 -4 10 -12 23 -18 35
-16 61 -73 53 -116 -4 -21 -11 -37 -16 -37 -6 0 -10 -5 -10 -11 0 -20 -63 -68
-115 -88 -55 -22 -36 -28 27 -9 50 15 112 75 128 123 31 95 -22 160 -186 225
-60 24 -124 53 -142 63 -90 53 -20 161 105 161 61 0 100 -22 123 -72 13 -27
20 -32 53 -32 31 0 37 3 37 20 0 49 -58 118 -122 144 -45 19 -152 20 -193 2z"/>
<path d="M2332 506 c44 -26 49 -84 8 -106 -18 -9 -17 -13 8 -70 l27 -60 127 0
128 0 0 62 c0 54 -5 68 -37 120 -35 53 -41 58 -73 57 -31 -1 -32 -2 -10 -8 14
-4 41 -29 61 -55 32 -42 37 -56 36 -100 l-1 -51 -112 3 -111 3 -18 40 c-17 37
-17 40 0 59 10 11 18 36 19 56 1 28 6 38 19 40 36 5 30 14 -9 14 -21 0 -50 3
-64 6 l-25 5 27 -15z"/>
<path d="M2573 510 c13 -25 63 -99 67 -100 6 0 60 88 60 98 0 4 -29 7 -65 7
-36 0 -64 -2 -62 -5z m87 -24 c0 -11 -13 -36 -19 -36 -3 0 -12 9 -19 20 -11
18 -10 20 13 20 14 0 25 -2 25 -4z"/>
<path d="M2200 450 l0 -50 58 0 c44 0 63 5 75 18 41 45 6 82 -76 82 l-57 0 0
-50z m104 20 c29 -11 34 -35 10 -44 -9 -3 -33 -6 -53 -6 -35 0 -38 2 -39 30
-1 27 3 30 28 30 16 0 40 -4 54 -10z"/>
<path d="M748 379 l-46 -109 95 0 c72 0 94 3 90 13 -8 19 -90 202 -91 203 0 1
-22 -47 -48 -107z m77 -4 c29 -63 30 -71 12 -78 -15 -5 -87 -1 -94 6 -5 5 46
127 53 127 2 0 15 -25 29 -55z"/>
<path d="M2200 328 l0 -58 75 0 c45 0 75 4 75 10 0 16 -38 88 -51 95 -6 4 -31
8 -55 9 l-44 2 0 -58z m109 0 c7 -20 7 -28 -2 -29 -70 -8 -83 -2 -85 39 -1 20
3 23 38 20 33 -2 41 -6 49 -30z"/>
</g>
</svg>
