<?xml version="1.0" encoding="utf-8"?>
<!-- Generator: Adobe Illustrator 24.1.3, SVG Export Plug-In . SVG Version: 6.00 Build 0)  -->
<svg version="1.1" id="Calque_1" xmlns="http://www.w3.org/2000/svg" xmlns:xlink="http://www.w3.org/1999/xlink" x="0px" y="0px"
	 viewBox="0 0 2692.91 2692.91" style="enable-background:new 0 0 2692.91 2692.91;" xml:space="preserve">
<style type="text/css">
	.st0{fill:#A17715;}
</style>
<rect x="0" y="690.38" class="st0" width="2692.91" height="1312.15"/>
<g>
	<path d="M821.27,1505.53l-0.89-534.1v-35.61h-58.75l-8.9,21.36l-207.41,461.1l-208.3-461.1l-8.9-21.36h-58.75v35.61v534.1v35.61
		l0,0v54.16c4.49-8.72,10.2-16.85,17.15-24.4c15.21-16.78,32.91-26.7,53.12-29.76h0.95v-35.61V1137l172.69,382.77l8.9,21.36H367.12
		c9.96,1.51,19.87,4.7,29.73,9.55c18.39,9.2,31.43,21.28,39.13,36.24l-11.55,5.77c-3.42-6.84-8.66-13.25-15.72-19.24
		c-16.25-13.9-34.64-20.74-55.16-20.53c-22.02,0.21-41.16,8.98-57.41,26.3c-17.53,19.03-26.3,42.33-26.3,69.92
		c0,25.87,7.91,48.22,23.73,67.03c16.46,19.46,36.45,29.18,59.97,29.18c22.23-0.21,41.69-9.3,58.37-27.26
		c16.46-17.96,24.7-38.81,24.7-62.54h-82.74v-12.83h95.57v6.42c-0.22,30.79-10.05,57.09-29.51,78.9
		c-15.05,16.26-32.41,25.94-52.08,29.05h247.91l3.66-7.88l89.8-205.26l1.17-2.82H568.47l8.9-21.36L749.17,1137l0.89,368.53v35.61
		h-30.47l1.17,2.82l89.8,205.26l3.66,7.88h179.15v-5.31v-205.26v-5.38h-172.1V1505.53z"/>
	<polygon points="1940.19,1491.28 1708.74,957.19 1698.95,935.82 1652.66,935.82 1642.87,957.19 1411.43,1491.28 1390.07,1541.13 
		1316.65,1541.13 1316.65,1546.52 1316.65,1745.36 1425.69,1745.36 1432.11,1745.36 1432.11,1757.09 1614.27,1757.09 
		1614.27,1751.78 1614.27,1655.56 1614.27,1642.73 1614.27,1546.52 1614.27,1541.13 1467.51,1541.13 1477.3,1519.77 
		1675.81,1061.34 1874.31,1519.77 1884.11,1541.13 1768.21,1541.13 1768.21,1552.93 1761.8,1552.93 1627.1,1552.93 1627.1,1642.73 
		1723.95,1642.73 1730.37,1642.73 1730.37,1655.56 1723.95,1655.56 1627.1,1655.56 1627.1,1745.36 1761.8,1745.36 1768.21,1745.36 
		1768.21,1757.09 1963.21,1757.09 1963.21,1751.78 1963.21,1655.56 1963.21,1649.15 1963.53,1546.84 1963.53,1541.13 
		1961.55,1541.13 	"/>
	<polygon points="1350.02,990.12 1383.84,935.82 1300.17,935.82 1289.49,952.74 1187.8,1115.17 1229.99,1181.37 	"/>
	<polygon points="1188.01,1505.53 1188.01,1248.27 1188.1,1248.13 989.07,935.82 916.51,935.82 951.23,991.01 1116.8,1250.05 
		1116.8,1505.53 1116.8,1541.13 1006.2,1541.13 1006.2,1546.52 1006.2,1745.36 1115.24,1745.36 1121.66,1745.36 1121.66,1757.09 
		1303.82,1757.09 1303.82,1751.78 1303.82,1546.52 1303.82,1541.13 1188.01,1541.13 	"/>
	<polygon points="714.99,1562.55 630.96,1754.34 629.82,1757.09 800.16,1757.09 799.02,1754.34 	"/>
	<polygon points="2307.33,1542.99 2369.87,1637.6 2423.54,1554.71 2423.54,1541.13 2306.09,1541.13 	"/>
	<path d="M2290.68,1541.13h-56.2c56.08-4.67,103.08-25.7,140.99-63.09c31.45-32.05,47.47-67.05,48.07-105.04
		c0-53.41-35.91-98.21-107.71-134.41c-14.24-6.52-56.68-23.73-127.29-51.63c-56.97-21.95-90.5-42.73-100.59-62.31
		c-2.98-6.52-4.45-12.75-4.45-18.69c0-34.41,18.1-61.12,54.3-80.11c22.55-11.86,46.58-17.8,72.1-17.8
		c43.91,0,78.63,13.95,104.15,41.84c14.83,16.62,22.25,35.31,22.25,56.08h71.21c0-49.25-21.36-90.8-64.09-124.62
		c-37.98-29.67-82.49-44.51-133.52-44.51c-64.09,0-115.72,21.36-154.89,64.09c-28.48,31.46-42.73,66.47-42.73,105.04
		c0,52.83,35.9,97.03,107.71,132.63c13.64,6.54,55.48,23.45,125.51,50.74c57.55,22.56,91.38,43.92,101.48,64.09
		c3.56,6.54,5.34,13.06,5.34,19.58c0,32.64-19.29,58.75-57.86,78.33c-26.12,13.06-54.3,19.58-84.57,19.58
		c-48.07,0-86.65-13.64-115.72-40.95c-17.22-17.21-26.12-36.19-26.7-56.97h-71.21c0,46.29,21.06,86.35,63.2,120.17
		c36.14,28,78.18,43.98,126.13,47.96h-114.01c10.81,1.82,20.65,6.07,29.53,12.76c14.96,11.76,22.45,26.51,22.45,44.26
		c0,9.2-2.36,17.96-7.06,26.3c-8.98,15.18-22.67,24.91-41.05,29.18c2.78,2.36,5.45,4.92,8.02,7.7
		c13.25,14.97,26.51,44.47,39.77,88.52l2.23,7.24h237.99v-5.31v-100.71l-67.03-101.03L2290.68,1541.13z"/>
	<path d="M1977,1643.05h0.32h0.32h0.32h0.32h0.32h0.32h0.32h0.32h0.32h0.32h0.32h0.32h0.32h0.32h0.32h0.32h0.32h0.32h0.32h0.32h0.32
		h0.32h0.32h0.32h0.32h0.32h0.32h0.32h0.32h0.32h0.32h0.32h0.32h0.32h0.32h0.32h0.32h0.32h0.32h0.32h0.32h0.32h0.32h0.32h0.32h0.32
		h0.32h0.32h0.32h0.32h0.32h0.32h0.32h0.32h0.32h0.32h0.32h0.32h0.32h0.32h0.32h0.32h0.32h0.32h0.32h0.32h0.32h0.32h0.32h0.32h0.32
		h0.32h0.32h0.32h0.32h0.32h0.32h0.32h0.32h0.32h0.32h0.32h0.32h0.32h0.32h0.32h0.32h0.32h0.32h0.32h0.32h0.32h0.32h0.32h0.32h0.32
		h0.32h0.32h0.32h0.32h0.32h0.32h0.32h0.32h0.32h0.32h0.32h0.32h0.32h0.32h0.32h0.32h0.32h0.32h0.32h0.32h0.32l0.32-0.32h0.32h0.32
		h0.32h0.32h0.32h0.32h0.32h0.32h0.32h0.32h0.32h0.32h0.32h0.32h0.32h0.32h0.32h0.32h0.32h0.32h0.32h0.32h0.32h0.32h0.32h0.32h0.32
		h0.32h0.32h0.32h0.32h0.32h0.32h0.32h0.32h0.32h0.32h0.32h0.32h0.32h0.32h0.32h0.32h0.32h0.32h0.32h0.32h0.32h0.32h0.32h0.32h0.32
		h0.32h0.32h0.32h0.32h0.32h0.32h0.32h0.32h0.32h0.32h0.32h0.32h0.32h0.32h0.32h0.32h0.32h0.32h0.32h0.32h0.32h0.32h20.85
		c11.55,0,22.02-3.1,31.43-9.3c13.25-8.98,19.88-20.74,19.88-35.28c0-9.83-3.42-18.81-10.26-26.94
		c-10.26-12.19-24.05-18.28-41.37-18.28h-83.07v90.12h0.64H1977z"/>
	<path d="M2085.08,1686.35c-6.84-12.19-16.04-22.45-27.58-30.79h-81.46v96.21v5.31h135.99l-0.97-3.39
		C2101.65,1723.34,2092.99,1700.89,2085.08,1686.35z"/>
</g>
</svg>
